<?xml version="1.0" encoding="utf-8"?>
<!-- Generator: Adobe Illustrator 21.0.0, SVG Export Plug-In . SVG Version: 6.00 Build 0)  -->
<svg version="1.1" id="Layer_1" xmlns="http://www.w3.org/2000/svg" xmlns:xlink="http://www.w3.org/1999/xlink" x="0px" y="0px"
	 viewBox="0 0 54.1 54.1" style="enable-background:new 0 0 54.1 54.1;" xml:space="preserve">
<style type="text/css">
	.st0{fill:#DFE3E9;}
	.st1{fill:#ED4D4F;}
	.st2{fill:#A93C3E;}
</style>
<path class="st0" d="M54.1,26.8C39.4,26.6,27.5,14.7,27.3,0h-0.5C26.6,14.7,14.7,26.6,0,26.8v0.5c14.7,0.1,26.6,12,26.8,26.8h0.5
	c0.1-14.7,12-26.6,26.8-26.8V26.8z"/>
<path class="st1" d="M54.1,26.8C53.9,12.1,42,0.2,27.3,0C27.5,14.7,39.4,26.6,54.1,26.8z"/>
<path class="st1" d="M54.1,27.3c-14.7,0.1-26.6,12-26.8,26.8C42,53.9,53.9,42,54.1,27.3z"/>
<path class="st2" d="M0,0v26.8l0,0c14.7-0.1,26.6-12,26.8-26.8C26.8,0,0,0,0,0z"/>
<path class="st2" d="M0,27.3L0,27.3v26.8h26.8C26.6,39.4,14.7,27.5,0,27.3z"/>
<path class="st2" d="M0,27.3C0.1,42,12,53.9,26.8,54.1C26.6,39.4,14.7,27.5,0,27.3z"/>
<path class="st2" d="M0,26.8c14.7-0.1,26.6-12,26.8-26.8C12,0.2,0.1,12.1,0,26.8z"/>
</svg>
